<svg width="1000" height="1000" viewBox="0 0 1000 1000" fill="none" xmlns="http://www.w3.org/2000/svg">
<rect width="1000" height="1000" fill="#F1F1EF" style="fill:#F1F1EF;fill:color(display-p3 0.9451 0.9451 0.9373);fill-opacity:1;"/>
<path d="M254.322 263.191C254.322 264.317 254.759 266.648 260.022 304.293C264.849 340.187 274.052 410.171 278.886 447.067C283.721 483.963 283.908 485.65 285.238 488.526" stroke="#7778EC" style="stroke:#7778EC;stroke:color(display-p3 0.4667 0.4706 0.9255);stroke-opacity:1;" stroke-width="32" stroke-linecap="round"/>
<path d="M548.545 242.754C548.166 252.204 547.369 265.197 546.538 307.011C545.868 340.694 546.469 399.707 546.689 430.986C547.653 467.423 548.221 472.387 548.599 476.449C548.789 478.746 548.977 481.524 549.738 484.386" stroke="#7778EC" style="stroke:#7778EC;stroke:color(display-p3 0.4667 0.4706 0.9255);stroke-opacity:1;" stroke-width="32" stroke-linecap="round"/>
<path d="M164.586 621.556C165.509 623.959 174.87 639.141 201.663 674.276C218.487 696.338 246.232 723.481 265.893 741.993C285.555 760.505 297.41 768.665 306.193 774.113C314.975 779.562 320.327 782.051 333.884 786.183C347.44 790.315 369.04 796.015 408.237 800.579C447.434 805.143 503.574 808.399 549.305 806.726C595.035 805.052 628.654 798.351 650.499 793.282C672.343 788.212 681.393 784.977 692.258 779.857C715.953 768.693 733.125 754.289 743.596 737.618C749.818 727.711 755.6 713.516 762.098 693.816C768.597 674.115 775.053 648.994 780.146 620.273C785.239 591.553 788.773 559.994 790.593 538.843C792.414 517.693 792.414 507.907 792.414 497.824" stroke="#7778EC" style="stroke:#7778EC;stroke:color(display-p3 0.4667 0.4706 0.9255);stroke-opacity:1;" stroke-width="32" stroke-linecap="round"/>
</svg>
